<svg xmlns="http://www.w3.org/2000/svg" xmlns:xlink="http://www.w3.org/1999/xlink" width="500" zoomAndPan="magnify" viewBox="0 0 375 374.999991" height="500" preserveAspectRatio="xMidYMid meet" version="1.0"><defs><g/><clipPath id="b78540b6ea"><path d="M 69.824219 60 L 198 60 L 198 249 L 69.824219 249 Z M 69.824219 60 " clip-rule="nonzero"/></clipPath><clipPath id="0ee0347271"><path d="M 197 120 L 324.207031 120 L 324.207031 300.6875 L 197 300.6875 Z M 197 120 " clip-rule="nonzero"/></clipPath><clipPath id="c630b1b46d"><path d="M 69.824219 173 L 272 173 L 272 300.6875 L 69.824219 300.6875 Z M 69.824219 173 " clip-rule="nonzero"/></clipPath><clipPath id="8d9620e59b"><path d="M 203 46.304688 L 272 46.304688 L 272 115 L 203 115 Z M 203 46.304688 " clip-rule="nonzero"/></clipPath></defs><g clip-path="url(#b78540b6ea)"><path fill="#817bb8" d="M 69.824219 248.132812 L 197.019531 173.492188 L 141.847656 79.480469 C 122.578125 46.640625 71.589844 58.410156 69.875 96.453125 C 69.839844 97.25 69.824219 98.054688 69.824219 98.859375 L 69.824219 248.132812 " fill-opacity="1" fill-rule="nonzero"/></g><g clip-path="url(#0ee0347271)"><path fill="#e62b4a" d="M 271.65625 300.6875 C 300.679688 300.6875 324.214844 277.160156 324.214844 248.132812 L 324.207031 148.671875 C 324.207031 126.625 300.257812 112.910156 281.238281 124.070312 L 197.019531 173.496094 L 271.65625 300.6875 " fill-opacity="1" fill-rule="nonzero"/></g><g clip-path="url(#c630b1b46d)"><path fill="#985288" d="M 122.378906 300.6875 L 271.65625 300.6875 L 197.019531 173.496094 L 69.824219 248.132812 C 69.824219 249.378906 69.863281 250.617188 69.953125 251.84375 C 71.855469 279.136719 94.601562 300.6875 122.378906 300.6875 " fill-opacity="1" fill-rule="nonzero"/></g><g clip-path="url(#8d9620e59b)"><path fill="#2a1a3f" d="M 271.65625 80.296875 C 271.65625 99.070312 256.441406 114.289062 237.664062 114.289062 C 218.890625 114.289062 203.667969 99.070312 203.667969 80.296875 C 203.675781 61.523438 218.894531 46.304688 237.664062 46.304688 C 256.441406 46.304688 271.65625 61.519531 271.65625 80.296875 Z M 271.65625 80.296875 " fill-opacity="1" fill-rule="nonzero"/></g><g fill="#2a1a3f" fill-opacity="1"><g transform="translate(118.108478, 278.046405)"><g><path d="M 27.390625 -48.171875 C 30.921875 -48.171875 34.132812 -47.460938 37.03125 -46.046875 C 39.925781 -44.628906 42.410156 -42.769531 44.484375 -40.46875 C 46.566406 -38.175781 48.171875 -35.53125 49.296875 -32.53125 C 50.429688 -29.539062 51 -26.472656 51 -23.328125 C 51 -21.441406 50.75 -19.425781 50.25 -17.28125 L 16.8125 -17.28125 C 18.070312 -15.144531 19.863281 -13.335938 22.1875 -11.859375 C 24.519531 -10.378906 27.039062 -9.640625 29.75 -9.640625 C 32.457031 -9.640625 34.832031 -9.859375 36.875 -10.296875 C 38.925781 -10.734375 40.863281 -11.300781 42.6875 -12 L 47.03125 -3.96875 C 44.707031 -2.332031 42.046875 -1.070312 39.046875 -0.1875 C 36.054688 0.695312 32.863281 1.140625 29.46875 1.140625 C 25.75 1.140625 22.285156 0.492188 19.078125 -0.796875 C 15.867188 -2.085938 13.066406 -3.832031 10.671875 -6.03125 C 8.273438 -8.238281 6.382812 -10.851562 5 -13.875 C 3.613281 -16.90625 2.921875 -20.117188 2.921875 -23.515625 C 2.921875 -26.859375 3.550781 -30.023438 4.8125 -33.015625 C 6.070312 -36.003906 7.816406 -38.613281 10.046875 -40.84375 C 12.285156 -43.082031 14.882812 -44.863281 17.84375 -46.1875 C 20.8125 -47.507812 23.992188 -48.171875 27.390625 -48.171875 Z M 38.0625 -27.390625 C 37.3125 -30.097656 35.957031 -32.300781 34 -34 C 32.050781 -35.695312 29.847656 -36.546875 27.390625 -36.546875 C 24.867188 -36.546875 22.582031 -35.695312 20.53125 -34 C 18.488281 -32.300781 17.09375 -30.097656 16.34375 -27.390625 Z M 38.0625 -27.390625 "/></g></g></g><g fill="#2a1a3f" fill-opacity="1"><g transform="translate(172.418358, 278.046405)"><g><path d="M 21.15625 -11.515625 L 42.78125 -11.515625 L 42.78125 0 L 4.0625 0 L 4.0625 -10.953125 L 23.328125 -35.234375 L 5.859375 -35.234375 L 5.859375 -46.84375 L 42.21875 -46.84375 L 42.21875 -38.15625 Z M 21.15625 -11.515625 "/></g></g></g><g fill="#817bb8" fill-opacity="1"><g transform="translate(104.28597, 331.568932)"><g><path d="M 7.84375 -14.65625 C 8.820312 -14.65625 9.742188 -14.457031 10.609375 -14.0625 C 11.484375 -13.664062 12.242188 -13.128906 12.890625 -12.453125 C 13.535156 -11.785156 14.046875 -11 14.421875 -10.09375 C 14.804688 -9.1875 15 -8.234375 15 -7.234375 C 15 -6.210938 14.804688 -5.253906 14.421875 -4.359375 C 14.046875 -3.460938 13.53125 -2.675781 12.875 -2 C 12.226562 -1.332031 11.46875 -0.800781 10.59375 -0.40625 C 9.726562 -0.0078125 8.804688 0.1875 7.828125 0.1875 C 6.847656 0.1875 5.921875 -0.0078125 5.046875 -0.40625 C 4.179688 -0.800781 3.425781 -1.332031 2.78125 -2 C 2.132812 -2.675781 1.625 -3.460938 1.25 -4.359375 C 0.875 -5.253906 0.6875 -6.210938 0.6875 -7.234375 C 0.6875 -8.234375 0.875 -9.1875 1.25 -10.09375 C 1.625 -11 2.132812 -11.785156 2.78125 -12.453125 C 3.4375 -13.128906 4.195312 -13.664062 5.0625 -14.0625 C 5.9375 -14.457031 6.863281 -14.65625 7.84375 -14.65625 Z M 7.84375 -1.828125 C 8.539062 -1.828125 9.191406 -1.96875 9.796875 -2.25 C 10.398438 -2.53125 10.925781 -2.914062 11.375 -3.40625 C 11.820312 -3.894531 12.171875 -4.46875 12.421875 -5.125 C 12.679688 -5.78125 12.8125 -6.484375 12.8125 -7.234375 C 12.8125 -7.984375 12.679688 -8.679688 12.421875 -9.328125 C 12.171875 -9.984375 11.820312 -10.554688 11.375 -11.046875 C 10.925781 -11.535156 10.398438 -11.914062 9.796875 -12.1875 C 9.191406 -12.46875 8.539062 -12.609375 7.84375 -12.609375 C 7.15625 -12.609375 6.503906 -12.46875 5.890625 -12.1875 C 5.285156 -11.914062 4.757812 -11.535156 4.3125 -11.046875 C 3.863281 -10.554688 3.507812 -9.984375 3.25 -9.328125 C 2.988281 -8.679688 2.859375 -7.984375 2.859375 -7.234375 C 2.859375 -6.484375 2.988281 -5.78125 3.25 -5.125 C 3.507812 -4.46875 3.863281 -3.894531 4.3125 -3.40625 C 4.757812 -2.914062 5.285156 -2.53125 5.890625 -2.25 C 6.503906 -1.96875 7.15625 -1.828125 7.84375 -1.828125 Z M 7.84375 -1.828125 "/></g></g></g><g fill="#817bb8" fill-opacity="1"><g transform="translate(121.543484, 331.568932)"><g><path d="M 13.59375 -14.453125 L 13.59375 0 L 11.4375 0 L 3.359375 -11.078125 L 3.359375 0 L 1.140625 0 L 1.140625 -14.453125 L 3.375 -14.453125 L 11.453125 -3.296875 L 11.453125 -14.453125 Z M 13.59375 -14.453125 "/></g></g></g><g fill="#817bb8" fill-opacity="1"><g transform="translate(137.945323, 331.568932)"><g><path d="M 9.96875 -14.453125 L 9.96875 -12.53125 L 3.265625 -12.53125 L 3.265625 -8.59375 L 9.234375 -8.59375 L 9.234375 -6.625 L 3.265625 -6.625 L 3.265625 -1.96875 L 9.96875 -1.96875 L 9.96875 0 L 1.140625 0 L 1.140625 -14.453125 Z M 9.96875 -14.453125 "/></g></g></g><g fill="#817bb8" fill-opacity="1"><g transform="translate(150.761419, 331.568932)"><g/></g></g><g fill="#817bb8" fill-opacity="1"><g transform="translate(157.709949, 331.568932)"><g><path d="M 4.015625 -12.53125 L 0.109375 -12.53125 L 0.109375 -14.453125 L 10.0625 -14.453125 L 10.0625 -12.53125 L 6.140625 -12.53125 L 6.140625 0 L 4.015625 0 Z M 4.015625 -12.53125 "/></g></g></g><g fill="#817bb8" fill-opacity="1"><g transform="translate(169.975956, 331.568932)"><g><path d="M 7.84375 -14.65625 C 8.820312 -14.65625 9.742188 -14.457031 10.609375 -14.0625 C 11.484375 -13.664062 12.242188 -13.128906 12.890625 -12.453125 C 13.535156 -11.785156 14.046875 -11 14.421875 -10.09375 C 14.804688 -9.1875 15 -8.234375 15 -7.234375 C 15 -6.210938 14.804688 -5.253906 14.421875 -4.359375 C 14.046875 -3.460938 13.53125 -2.675781 12.875 -2 C 12.226562 -1.332031 11.46875 -0.800781 10.59375 -0.40625 C 9.726562 -0.0078125 8.804688 0.1875 7.828125 0.1875 C 6.847656 0.1875 5.921875 -0.0078125 5.046875 -0.40625 C 4.179688 -0.800781 3.425781 -1.332031 2.78125 -2 C 2.132812 -2.675781 1.625 -3.460938 1.25 -4.359375 C 0.875 -5.253906 0.6875 -6.210938 0.6875 -7.234375 C 0.6875 -8.234375 0.875 -9.1875 1.25 -10.09375 C 1.625 -11 2.132812 -11.785156 2.78125 -12.453125 C 3.4375 -13.128906 4.195312 -13.664062 5.0625 -14.0625 C 5.9375 -14.457031 6.863281 -14.65625 7.84375 -14.65625 Z M 7.84375 -1.828125 C 8.539062 -1.828125 9.191406 -1.96875 9.796875 -2.25 C 10.398438 -2.53125 10.925781 -2.914062 11.375 -3.40625 C 11.820312 -3.894531 12.171875 -4.46875 12.421875 -5.125 C 12.679688 -5.78125 12.8125 -6.484375 12.8125 -7.234375 C 12.8125 -7.984375 12.679688 -8.679688 12.421875 -9.328125 C 12.171875 -9.984375 11.820312 -10.554688 11.375 -11.046875 C 10.925781 -11.535156 10.398438 -11.914062 9.796875 -12.1875 C 9.191406 -12.46875 8.539062 -12.609375 7.84375 -12.609375 C 7.15625 -12.609375 6.503906 -12.46875 5.890625 -12.1875 C 5.285156 -11.914062 4.757812 -11.535156 4.3125 -11.046875 C 3.863281 -10.554688 3.507812 -9.984375 3.25 -9.328125 C 2.988281 -8.679688 2.859375 -7.984375 2.859375 -7.234375 C 2.859375 -6.484375 2.988281 -5.78125 3.25 -5.125 C 3.507812 -4.46875 3.863281 -3.894531 4.3125 -3.40625 C 4.757812 -2.914062 5.285156 -2.53125 5.890625 -2.25 C 6.503906 -1.96875 7.15625 -1.828125 7.84375 -1.828125 Z M 7.84375 -1.828125 "/></g></g></g><g fill="#817bb8" fill-opacity="1"><g transform="translate(187.233468, 331.568932)"><g><path d="M 11.75 -5.109375 C 11.75 -4.378906 11.609375 -3.691406 11.328125 -3.046875 C 11.054688 -2.398438 10.679688 -1.832031 10.203125 -1.34375 C 9.734375 -0.863281 9.175781 -0.484375 8.53125 -0.203125 C 7.894531 0.0664062 7.210938 0.203125 6.484375 0.203125 C 5.742188 0.203125 5.054688 0.0664062 4.421875 -0.203125 C 3.785156 -0.484375 3.226562 -0.863281 2.75 -1.34375 C 2.269531 -1.832031 1.890625 -2.398438 1.609375 -3.046875 C 1.335938 -3.691406 1.203125 -4.378906 1.203125 -5.109375 L 1.203125 -14.453125 L 3.328125 -14.453125 L 3.328125 -5.109375 C 3.328125 -4.679688 3.40625 -4.269531 3.5625 -3.875 C 3.726562 -3.476562 3.953125 -3.125 4.234375 -2.8125 C 4.523438 -2.507812 4.863281 -2.269531 5.25 -2.09375 C 5.632812 -1.914062 6.046875 -1.828125 6.484375 -1.828125 C 6.910156 -1.828125 7.3125 -1.914062 7.6875 -2.09375 C 8.070312 -2.269531 8.40625 -2.507812 8.6875 -2.8125 C 8.976562 -3.125 9.203125 -3.476562 9.359375 -3.875 C 9.523438 -4.269531 9.609375 -4.679688 9.609375 -5.109375 L 9.609375 -14.453125 L 11.75 -14.453125 Z M 11.75 -5.109375 "/></g></g></g><g fill="#817bb8" fill-opacity="1"><g transform="translate(201.78132, 331.568932)"><g><path d="M 7.953125 -1.765625 C 8.734375 -1.765625 9.457031 -1.953125 10.125 -2.328125 C 10.800781 -2.710938 11.375 -3.21875 11.84375 -3.84375 L 13.328125 -2.421875 C 12.671875 -1.648438 11.878906 -1.019531 10.953125 -0.53125 C 10.023438 -0.0390625 9.023438 0.203125 7.953125 0.203125 C 6.972656 0.203125 6.046875 0.00390625 5.171875 -0.390625 C 4.304688 -0.785156 3.550781 -1.316406 2.90625 -1.984375 C 2.269531 -2.660156 1.765625 -3.445312 1.390625 -4.34375 C 1.015625 -5.25 0.828125 -6.207031 0.828125 -7.21875 C 0.828125 -8.226562 1.015625 -9.179688 1.390625 -10.078125 C 1.765625 -10.984375 2.269531 -11.769531 2.90625 -12.4375 C 3.550781 -13.113281 4.304688 -13.644531 5.171875 -14.03125 C 6.046875 -14.425781 6.972656 -14.625 7.953125 -14.625 C 8.859375 -14.625 9.710938 -14.441406 10.515625 -14.078125 C 11.328125 -13.722656 12.050781 -13.253906 12.6875 -12.671875 L 11.4375 -11.0625 C 10.988281 -11.539062 10.460938 -11.929688 9.859375 -12.234375 C 9.265625 -12.535156 8.628906 -12.6875 7.953125 -12.6875 C 7.253906 -12.6875 6.601562 -12.539062 6 -12.25 C 5.394531 -11.957031 4.867188 -11.5625 4.421875 -11.0625 C 3.972656 -10.5625 3.613281 -9.976562 3.34375 -9.3125 C 3.082031 -8.65625 2.953125 -7.957031 2.953125 -7.21875 C 2.953125 -6.46875 3.082031 -5.757812 3.34375 -5.09375 C 3.613281 -4.4375 3.972656 -3.859375 4.421875 -3.359375 C 4.867188 -2.867188 5.394531 -2.476562 6 -2.1875 C 6.601562 -1.90625 7.253906 -1.765625 7.953125 -1.765625 Z M 7.953125 -1.765625 "/></g></g></g><g fill="#817bb8" fill-opacity="1"><g transform="translate(217.388593, 331.568932)"><g><path d="M 11.375 -14.453125 L 13.484375 -14.453125 L 13.484375 0 L 11.375 0 L 11.375 -6.625 L 3.28125 -6.625 L 3.28125 0 L 1.140625 0 L 1.140625 -14.453125 L 3.28125 -14.453125 L 3.28125 -8.59375 L 11.375 -8.59375 Z M 11.375 -14.453125 "/></g></g></g><g fill="#817bb8" fill-opacity="1"><g transform="translate(233.749685, 331.568932)"><g/></g></g><g fill="#817bb8" fill-opacity="1"><g transform="translate(240.698215, 331.568932)"><g><path d="M 9.96875 -14.453125 L 9.96875 -12.53125 L 3.265625 -12.53125 L 3.265625 -8.59375 L 9.234375 -8.59375 L 9.234375 -6.625 L 3.265625 -6.625 L 3.265625 -1.96875 L 9.96875 -1.96875 L 9.96875 0 L 1.140625 0 L 1.140625 -14.453125 Z M 9.96875 -14.453125 "/></g></g></g><g fill="#817bb8" fill-opacity="1"><g transform="translate(253.514308, 331.568932)"><g><path d="M 1.21875 0 L 1.21875 -14.453125 L 6.359375 -14.453125 C 7.398438 -14.453125 8.320312 -14.257812 9.125 -13.875 C 9.925781 -13.5 10.59375 -12.984375 11.125 -12.328125 C 11.664062 -11.671875 12.078125 -10.898438 12.359375 -10.015625 C 12.640625 -9.140625 12.78125 -8.207031 12.78125 -7.21875 C 12.78125 -6.207031 12.632812 -5.265625 12.34375 -4.390625 C 12.050781 -3.515625 11.644531 -2.75 11.125 -2.09375 C 10.601562 -1.445312 9.988281 -0.9375 9.28125 -0.5625 C 8.582031 -0.1875 7.828125 0 7.015625 0 Z M 6.28125 -1.96875 C 7.050781 -1.96875 7.707031 -2.109375 8.25 -2.390625 C 8.789062 -2.679688 9.238281 -3.066406 9.59375 -3.546875 C 9.945312 -4.023438 10.203125 -4.582031 10.359375 -5.21875 C 10.523438 -5.851562 10.609375 -6.519531 10.609375 -7.21875 C 10.609375 -7.90625 10.523438 -8.570312 10.359375 -9.21875 C 10.203125 -9.863281 9.953125 -10.429688 9.609375 -10.921875 C 9.265625 -11.410156 8.816406 -11.800781 8.265625 -12.09375 C 7.710938 -12.382812 7.050781 -12.53125 6.28125 -12.53125 L 3.359375 -12.53125 L 3.359375 -1.96875 Z M 6.28125 -1.96875 "/></g></g></g><g fill="#817bb8" fill-opacity="1"><g transform="translate(268.958596, 331.568932)"><g><path d="M 5.046875 -12.6875 L 5.046875 -1.75 L 6.109375 -1.75 L 6.109375 0 L 1.859375 0 L 1.859375 -1.75 L 2.9375 -1.75 L 2.9375 -12.6875 L 1.859375 -12.6875 L 1.859375 -14.453125 L 6.109375 -14.453125 L 6.109375 -12.6875 Z M 5.046875 -12.6875 "/></g></g></g><g fill="#817bb8" fill-opacity="1"><g transform="translate(278.596429, 331.568932)"><g><path d="M 4.015625 -12.53125 L 0.109375 -12.53125 L 0.109375 -14.453125 L 10.0625 -14.453125 L 10.0625 -12.53125 L 6.140625 -12.53125 L 6.140625 0 L 4.015625 0 Z M 4.015625 -12.53125 "/></g></g></g></svg>