<svg xmlns="http://www.w3.org/2000/svg" xmlns:xlink="http://www.w3.org/1999/xlink" width="500" zoomAndPan="magnify" viewBox="0 0 375 374.999991" height="500" preserveAspectRatio="xMidYMid meet" version="1.0"><defs><g/><clipPath id="35efca6804"><path d="M 52.683594 52 L 188 52 L 188 252 L 52.683594 252 Z M 52.683594 52 " clip-rule="nonzero"/></clipPath><clipPath id="7f6b63201a"><path d="M 187 115 L 321.957031 115 L 321.957031 306.773438 L 187 306.773438 Z M 187 115 " clip-rule="nonzero"/></clipPath><clipPath id="f2ee44d5a8"><path d="M 52.683594 172 L 267 172 L 267 306.773438 L 52.683594 306.773438 Z M 52.683594 172 " clip-rule="nonzero"/></clipPath><clipPath id="e86b553696"><path d="M 194 37.5 L 267 37.5 L 267 110 L 194 110 Z M 194 37.5 " clip-rule="nonzero"/></clipPath></defs><g clip-path="url(#35efca6804)"><path fill="#817bb8" d="M 52.683594 251.140625 L 187.324219 172.132812 L 128.921875 72.621094 C 108.527344 37.855469 54.554688 50.316406 52.738281 90.585938 C 52.699219 91.425781 52.683594 92.28125 52.683594 93.132812 L 52.683594 251.140625 " fill-opacity="1" fill-rule="nonzero"/></g><g clip-path="url(#7f6b63201a)"><path fill="#e62b4a" d="M 266.328125 306.773438 C 297.050781 306.773438 321.960938 281.867188 321.960938 251.140625 L 321.957031 145.863281 C 321.957031 122.523438 296.605469 108.007812 276.472656 119.820312 L 187.324219 172.136719 L 266.328125 306.773438 " fill-opacity="1" fill-rule="nonzero"/></g><g clip-path="url(#f2ee44d5a8)"><path fill="#985288" d="M 108.316406 306.773438 L 266.328125 306.773438 L 187.324219 172.136719 L 52.683594 251.140625 C 52.683594 252.460938 52.726562 253.773438 52.820312 255.070312 C 54.832031 283.957031 78.914062 306.773438 108.316406 306.773438 " fill-opacity="1" fill-rule="nonzero"/></g><g clip-path="url(#e86b553696)"><path fill="#2a1a3f" d="M 266.328125 73.484375 C 266.328125 93.355469 250.222656 109.464844 230.347656 109.464844 C 210.472656 109.464844 194.363281 93.355469 194.363281 73.484375 C 194.367188 53.609375 210.480469 37.5 230.347656 37.5 C 250.222656 37.5 266.328125 53.605469 266.328125 73.484375 Z M 266.328125 73.484375 " fill-opacity="1" fill-rule="nonzero"/></g><g fill="#2a1a3f" fill-opacity="1"><g transform="translate(107.263448, 278.658531)"><g><path d="M 26.421875 -46.46875 C 29.828125 -46.46875 32.925781 -45.785156 35.71875 -44.421875 C 38.507812 -43.054688 40.90625 -41.265625 42.90625 -39.046875 C 44.914062 -36.828125 46.46875 -34.273438 47.5625 -31.390625 C 48.65625 -28.503906 49.203125 -25.546875 49.203125 -22.515625 C 49.203125 -20.691406 48.960938 -18.742188 48.484375 -16.671875 L 16.21875 -16.671875 C 17.4375 -14.609375 19.164062 -12.863281 21.40625 -11.4375 C 23.65625 -10.007812 26.085938 -9.296875 28.703125 -9.296875 C 31.316406 -9.296875 33.609375 -9.507812 35.578125 -9.9375 C 37.554688 -10.363281 39.425781 -10.910156 41.1875 -11.578125 L 45.375 -3.828125 C 43.132812 -2.242188 40.570312 -1.023438 37.6875 -0.171875 C 34.800781 0.671875 31.71875 1.09375 28.4375 1.09375 C 24.84375 1.09375 21.5 0.472656 18.40625 -0.765625 C 15.3125 -2.015625 12.609375 -3.703125 10.296875 -5.828125 C 7.984375 -7.953125 6.160156 -10.472656 4.828125 -13.390625 C 3.492188 -16.304688 2.828125 -19.40625 2.828125 -22.6875 C 2.828125 -25.90625 3.429688 -28.957031 4.640625 -31.84375 C 5.859375 -34.726562 7.546875 -37.25 9.703125 -39.40625 C 11.859375 -41.5625 14.363281 -43.273438 17.21875 -44.546875 C 20.070312 -45.828125 23.140625 -46.46875 26.421875 -46.46875 Z M 36.71875 -26.421875 C 35.988281 -29.035156 34.679688 -31.160156 32.796875 -32.796875 C 30.921875 -34.441406 28.796875 -35.265625 26.421875 -35.265625 C 23.992188 -35.265625 21.789062 -34.441406 19.8125 -32.796875 C 17.84375 -31.160156 16.492188 -29.035156 15.765625 -26.421875 Z M 36.71875 -26.421875 "/></g></g></g><g fill="#2a1a3f" fill-opacity="1"><g transform="translate(159.654388, 278.658531)"><g><path d="M 20.40625 -11.125 L 41.28125 -11.125 L 41.28125 0 L 3.921875 0 L 3.921875 -10.578125 L 22.515625 -33.984375 L 5.65625 -33.984375 L 5.65625 -45.203125 L 40.734375 -45.203125 L 40.734375 -36.8125 Z M 20.40625 -11.125 "/></g></g></g><g fill="#985288" fill-opacity="1"><g transform="translate(107.196784, 339.814952)"><g><path d="M 8.328125 -15.5625 C 9.367188 -15.5625 10.347656 -15.347656 11.265625 -14.921875 C 12.191406 -14.503906 13 -13.9375 13.6875 -13.21875 C 14.375 -12.507812 14.914062 -11.675781 15.3125 -10.71875 C 15.71875 -9.757812 15.921875 -8.75 15.921875 -7.6875 C 15.921875 -6.601562 15.71875 -5.582031 15.3125 -4.625 C 14.914062 -3.675781 14.367188 -2.84375 13.671875 -2.125 C 12.984375 -1.414062 12.175781 -0.851562 11.25 -0.4375 C 10.332031 -0.0195312 9.351562 0.1875 8.3125 0.1875 C 7.269531 0.1875 6.285156 -0.0195312 5.359375 -0.4375 C 4.441406 -0.851562 3.640625 -1.414062 2.953125 -2.125 C 2.265625 -2.84375 1.722656 -3.675781 1.328125 -4.625 C 0.929688 -5.582031 0.734375 -6.601562 0.734375 -7.6875 C 0.734375 -8.75 0.929688 -9.757812 1.328125 -10.71875 C 1.722656 -11.675781 2.265625 -12.507812 2.953125 -13.21875 C 3.648438 -13.9375 4.460938 -14.503906 5.390625 -14.921875 C 6.316406 -15.347656 7.296875 -15.5625 8.328125 -15.5625 Z M 8.328125 -1.953125 C 9.066406 -1.953125 9.753906 -2.097656 10.390625 -2.390625 C 11.035156 -2.679688 11.597656 -3.085938 12.078125 -3.609375 C 12.554688 -4.128906 12.929688 -4.738281 13.203125 -5.4375 C 13.472656 -6.132812 13.609375 -6.882812 13.609375 -7.6875 C 13.609375 -8.476562 13.472656 -9.21875 13.203125 -9.90625 C 12.929688 -10.601562 12.554688 -11.210938 12.078125 -11.734375 C 11.597656 -12.253906 11.035156 -12.660156 10.390625 -12.953125 C 9.753906 -13.242188 9.066406 -13.390625 8.328125 -13.390625 C 7.597656 -13.390625 6.910156 -13.242188 6.265625 -12.953125 C 5.617188 -12.660156 5.054688 -12.253906 4.578125 -11.734375 C 4.109375 -11.210938 3.734375 -10.601562 3.453125 -9.90625 C 3.171875 -9.21875 3.03125 -8.476562 3.03125 -7.6875 C 3.03125 -6.882812 3.171875 -6.132812 3.453125 -5.4375 C 3.734375 -4.738281 4.109375 -4.128906 4.578125 -3.609375 C 5.054688 -3.085938 5.617188 -2.679688 6.265625 -2.390625 C 6.910156 -2.097656 7.597656 -1.953125 8.328125 -1.953125 Z M 8.328125 -1.953125 "/></g></g></g><g fill="#985288" fill-opacity="1"><g transform="translate(125.521459, 339.814952)"><g><path d="M 14.4375 -15.34375 L 14.4375 0 L 12.140625 0 L 3.578125 -11.765625 L 3.578125 0 L 1.21875 0 L 1.21875 -15.34375 L 3.59375 -15.34375 L 12.15625 -3.5 L 12.15625 -15.34375 Z M 14.4375 -15.34375 "/></g></g></g><g fill="#985288" fill-opacity="1"><g transform="translate(142.937547, 339.814952)"><g><path d="M 10.578125 -15.34375 L 10.578125 -13.3125 L 3.46875 -13.3125 L 3.46875 -9.125 L 9.796875 -9.125 L 9.796875 -7.03125 L 3.46875 -7.03125 L 3.46875 -2.09375 L 10.578125 -2.09375 L 10.578125 0 L 1.21875 0 L 1.21875 -15.34375 Z M 10.578125 -15.34375 "/></g></g></g><g fill="#985288" fill-opacity="1"><g transform="translate(156.546158, 339.814952)"><g/></g></g><g fill="#985288" fill-opacity="1"><g transform="translate(163.924368, 339.814952)"><g><path d="M 4.265625 -13.3125 L 0.109375 -13.3125 L 0.109375 -15.34375 L 10.6875 -15.34375 L 10.6875 -13.3125 L 6.515625 -13.3125 L 6.515625 0 L 4.265625 0 Z M 4.265625 -13.3125 "/></g></g></g><g fill="#985288" fill-opacity="1"><g transform="translate(176.948874, 339.814952)"><g><path d="M 2.703125 0 L 0.234375 0 L 6.625 -15.34375 L 9.109375 -15.34375 L 15.5 0 L 13.046875 0 L 11.03125 -4.796875 L 4.703125 -4.796875 Z M 5.5625 -6.875 L 10.171875 -6.875 L 7.875 -12.421875 Z M 5.5625 -6.875 "/></g></g></g><g fill="#985288" fill-opacity="1"><g transform="translate(194.51638, 339.814952)"><g><path d="M 7.40625 -15.34375 C 8.007812 -15.34375 8.578125 -15.226562 9.109375 -15 C 9.640625 -14.769531 10.101562 -14.457031 10.5 -14.0625 C 10.90625 -13.675781 11.222656 -13.21875 11.453125 -12.6875 C 11.679688 -12.164062 11.796875 -11.601562 11.796875 -11 C 11.796875 -10.382812 11.679688 -9.8125 11.453125 -9.28125 C 11.222656 -8.75 10.90625 -8.285156 10.5 -7.890625 C 10.101562 -7.503906 9.640625 -7.195312 9.109375 -6.96875 C 8.578125 -6.75 8.007812 -6.640625 7.40625 -6.640625 L 3.421875 -6.625 L 3.421875 0 L 1.171875 0 L 1.171875 -15.34375 Z M 7.40625 -8.75 C 7.707031 -8.75 7.988281 -8.804688 8.25 -8.921875 C 8.519531 -9.046875 8.753906 -9.207031 8.953125 -9.40625 C 9.160156 -9.613281 9.320312 -9.859375 9.4375 -10.140625 C 9.550781 -10.421875 9.609375 -10.71875 9.609375 -11.03125 C 9.609375 -11.351562 9.550781 -11.648438 9.4375 -11.921875 C 9.320312 -12.191406 9.160156 -12.429688 8.953125 -12.640625 C 8.753906 -12.859375 8.519531 -13.023438 8.25 -13.140625 C 7.988281 -13.265625 7.707031 -13.328125 7.40625 -13.328125 L 3.421875 -13.328125 L 3.421875 -8.75 Z M 7.40625 -8.75 "/></g></g></g><g fill="#985288" fill-opacity="1"><g transform="translate(208.838895, 339.814952)"><g/></g></g><g fill="#985288" fill-opacity="1"><g transform="translate(216.217105, 339.814952)"><g><path d="M 10.578125 -15.34375 L 10.578125 -13.3125 L 3.46875 -13.3125 L 3.46875 -9.125 L 9.796875 -9.125 L 9.796875 -7.03125 L 3.46875 -7.03125 L 3.46875 -2.09375 L 10.578125 -2.09375 L 10.578125 0 L 1.21875 0 L 1.21875 -15.34375 Z M 10.578125 -15.34375 "/></g></g></g><g fill="#985288" fill-opacity="1"><g transform="translate(229.825714, 339.814952)"><g><path d="M 1.296875 0 L 1.296875 -15.34375 L 6.75 -15.34375 C 7.863281 -15.34375 8.84375 -15.140625 9.6875 -14.734375 C 10.539062 -14.328125 11.253906 -13.773438 11.828125 -13.078125 C 12.398438 -12.390625 12.832031 -11.578125 13.125 -10.640625 C 13.414062 -9.703125 13.5625 -8.707031 13.5625 -7.65625 C 13.5625 -6.59375 13.40625 -5.59375 13.09375 -4.65625 C 12.789062 -3.726562 12.363281 -2.914062 11.8125 -2.21875 C 11.269531 -1.53125 10.625 -0.988281 9.875 -0.59375 C 9.125 -0.195312 8.3125 0 7.4375 0 Z M 6.671875 -2.09375 C 7.492188 -2.09375 8.191406 -2.242188 8.765625 -2.546875 C 9.335938 -2.859375 9.8125 -3.265625 10.1875 -3.765625 C 10.5625 -4.265625 10.835938 -4.851562 11.015625 -5.53125 C 11.191406 -6.21875 11.28125 -6.925781 11.28125 -7.65625 C 11.28125 -8.394531 11.191406 -9.101562 11.015625 -9.78125 C 10.835938 -10.46875 10.566406 -11.070312 10.203125 -11.59375 C 9.835938 -12.113281 9.363281 -12.53125 8.78125 -12.84375 C 8.195312 -13.15625 7.492188 -13.3125 6.671875 -13.3125 L 3.578125 -13.3125 L 3.578125 -2.09375 Z M 6.671875 -2.09375 "/></g></g></g><g fill="#985288" fill-opacity="1"><g transform="translate(246.225038, 339.814952)"><g><path d="M 5.359375 -13.484375 L 5.359375 -1.859375 L 6.484375 -1.859375 L 6.484375 0 L 1.96875 0 L 1.96875 -1.859375 L 3.109375 -1.859375 L 3.109375 -13.484375 L 1.96875 -13.484375 L 1.96875 -15.34375 L 6.484375 -15.34375 L 6.484375 -13.484375 Z M 5.359375 -13.484375 "/></g></g></g><g fill="#985288" fill-opacity="1"><g transform="translate(256.458851, 339.814952)"><g><path d="M 4.265625 -13.3125 L 0.109375 -13.3125 L 0.109375 -15.34375 L 10.6875 -15.34375 L 10.6875 -13.3125 L 6.515625 -13.3125 L 6.515625 0 L 4.265625 0 Z M 4.265625 -13.3125 "/></g></g></g></svg>