<svg xmlns="http://www.w3.org/2000/svg" xmlns:xlink="http://www.w3.org/1999/xlink" width="500" zoomAndPan="magnify" viewBox="0 0 375 374.999991" height="500" preserveAspectRatio="xMidYMid meet" version="1.0"><defs><g/><clipPath id="8f28a4b762"><path d="M 181.839844 133.496094 L 266.746094 133.496094 L 266.746094 218.402344 L 181.839844 218.402344 Z M 181.839844 133.496094 " clip-rule="nonzero"/></clipPath><clipPath id="f86d0fad8d"><path d="M 224.292969 133.496094 C 200.847656 133.496094 181.839844 152.503906 181.839844 175.949219 C 181.839844 199.394531 200.847656 218.402344 224.292969 218.402344 C 247.738281 218.402344 266.746094 199.394531 266.746094 175.949219 C 266.746094 152.503906 247.738281 133.496094 224.292969 133.496094 Z M 224.292969 133.496094 " clip-rule="nonzero"/></clipPath><clipPath id="30732954c8"><path d="M 108.253906 133.496094 L 193.160156 133.496094 L 193.160156 218.402344 L 108.253906 218.402344 Z M 108.253906 133.496094 " clip-rule="nonzero"/></clipPath><clipPath id="2538248892"><path d="M 150.707031 133.496094 C 127.261719 133.496094 108.253906 152.503906 108.253906 175.949219 C 108.253906 199.394531 127.261719 218.402344 150.707031 218.402344 C 174.152344 218.402344 193.160156 199.394531 193.160156 175.949219 C 193.160156 152.503906 174.152344 133.496094 150.707031 133.496094 Z M 150.707031 133.496094 " clip-rule="nonzero"/></clipPath></defs><g clip-path="url(#8f28a4b762)"><g clip-path="url(#f86d0fad8d)"><path fill="#ee217f" d="M 181.839844 133.496094 L 266.746094 133.496094 L 266.746094 218.402344 L 181.839844 218.402344 Z M 181.839844 133.496094 " fill-opacity="1" fill-rule="nonzero"/></g></g><g clip-path="url(#30732954c8)"><g clip-path="url(#2538248892)"><path fill="#723fa3" d="M 108.253906 133.496094 L 193.160156 133.496094 L 193.160156 218.402344 L 108.253906 218.402344 Z M 108.253906 133.496094 " fill-opacity="1" fill-rule="nonzero"/></g></g><g fill="#ffffff" fill-opacity="1"><g transform="translate(133.974745, 191.597975)"><g><path d="M 4.28125 0 L 4.28125 -37.09375 L 29.328125 -37.09375 L 29.328125 -30.078125 L 12.625 -30.078125 L 12.625 -22.796875 L 27.453125 -22.796875 L 27.453125 -15.953125 L 12.625 -15.953125 L 12.625 -7.015625 L 30.5625 -7.015625 L 30.5625 0 Z M 4.28125 0 "/></g></g></g><g fill="#ffffff" fill-opacity="1"><g transform="translate(207.363037, 191.597975)"><g><path d="M 30.453125 -31.3125 C 29.304688 -30.132812 27.945312 -28.609375 26.375 -26.734375 C 24.8125 -24.859375 23.191406 -22.8125 21.515625 -20.59375 C 19.835938 -18.382812 18.175781 -16.101562 16.53125 -13.75 C 14.894531 -11.394531 13.429688 -9.148438 12.140625 -7.015625 L 31.046875 -7.015625 L 31.046875 0 L 1.875 0 L 1.875 -4.984375 C 2.875 -6.796875 4.09375 -8.816406 5.53125 -11.046875 C 6.976562 -13.273438 8.488281 -15.519531 10.0625 -17.78125 C 11.632812 -20.050781 13.226562 -22.25 14.84375 -24.375 C 16.46875 -26.5 17.976562 -28.398438 19.375 -30.078125 L 2.734375 -30.078125 L 2.734375 -37.09375 L 30.453125 -37.09375 Z M 30.453125 -31.3125 "/></g></g></g><g fill="#ffffff" fill-opacity="1"><g transform="translate(157.242805, 247.890541)"><g><path d="M 0.972656 0 L 11.910156 0 L 11.910156 -1.835938 L 3.273438 -1.835938 L 3.273438 -5.703125 L 11.011719 -5.703125 L 11.011719 -7.394531 L 3.273438 -7.394531 L 3.273438 -10.902344 L 11.730469 -10.902344 L 11.730469 -12.757812 L 0.972656 -12.757812 Z M 0.972656 0 "/></g></g></g><g fill="#ffffff" fill-opacity="1"><g transform="translate(174.946794, 247.890541)"><g><path d="M 0.972656 0 L 7.429688 0 C 12.035156 0 14.574219 -2.285156 14.574219 -6.371094 C 14.574219 -10.472656 12.035156 -12.757812 7.429688 -12.757812 L 0.972656 -12.757812 Z M 3.292969 -1.890625 L 3.292969 -10.867188 L 7.324219 -10.867188 C 10.472656 -10.867188 12.234375 -9.265625 12.234375 -6.371094 C 12.234375 -3.492188 10.472656 -1.890625 7.324219 -1.890625 Z M 3.292969 -1.890625 "/></g></g></g><g fill="#ffffff" fill-opacity="1"><g transform="translate(195.546904, 247.890541)"><g><path d="M 0.972656 0 L 3.328125 0 L 3.328125 -12.757812 L 0.972656 -12.757812 Z M 0.972656 0 "/></g></g></g><g fill="#ffffff" fill-opacity="1"><g transform="translate(205.246098, 247.890541)"><g><path d="M 5.054688 0 L 7.429688 0 L 7.429688 -10.796875 L 12.308594 -10.796875 L 12.308594 -12.757812 L 0.160156 -12.757812 L 0.160156 -10.796875 L 5.054688 -10.796875 Z M 5.054688 0 "/></g></g></g></svg>